0
SECTION
2
HEADER
9
$INSUNITS
70
4
9
$ACADVER
1
AC1014
9
$HANDSEED
5
FFFF
0
ENDSEC
0
SECTION
2
TABLES
0
TABLE
2
VPORT
5
8
100
AcDbSymbolTable
0
ENDTAB
0
TABLE
2
LTYPE
5
5
100
AcDbSymbolTable
0
LTYPE
5
14
100
AcDbSymbolTableRecord
100
AcDbLinetypeTableRecord
2
BYBLOCK
70
0
0
LTYPE
5
15
100
AcDbSymbolTableRecord
100
AcDbLinetypeTableRecord
2
BYLAYER
70
0
0
ENDTAB
0
TABLE
2
LAYER
5
2
100
AcDbSymbolTable
70
2
0
LAYER
5
50
100
AcDbSymbolTableRecord
100
AcDbLayerTableRecord
2
0
70
0
6
CONTINUOUS
0
ENDTAB
0
TABLE
2
STYLE
5
3
100
AcDbSymbolTable
70
1
0
STYLE
5
11
100
AcDbSymbolTableRecord
100
AcDbTextStyleTableRecord
2
STANDARD
70
0
0
ENDTAB
0
TABLE
2
VIEW
5
6
100
AcDbSymbolTable
70
0
0
ENDTAB
0
TABLE
2
UCS
5
7
100
AcDbSymbolTable
70
0
0
ENDTAB
0
TABLE
2
APPID
5
9
100
AcDbSymbolTable
70
2
0
APPID
5
12
100
AcDbSymbolTableRecord
100
AcDbRegAppTableRecord
2
ACAD
70
0
0
ENDTAB
0
TABLE
2
DIMSTYLE
5
A
100
AcDbSymbolTable
70
1
0
ENDTAB
0
TABLE
2
BLOCK_RECORD
5
1
100
AcDbSymbolTable
70
1
0
BLOCK_RECORD
5
1F
100
AcDbSymbolTableRecord
100
AcDbBlockTableRecord
2
*MODEL_SPACE
0
BLOCK_RECORD
5
1B
100
AcDbSymbolTableRecord
100
AcDbBlockTableRecord
2
*PAPER_SPACE
0
ENDTAB
0
ENDSEC
0
SECTION
2
BLOCKS
0
BLOCK
5
20
100
AcDbEntity
100
AcDbBlockBegin
2
*MODEL_SPACE
0
ENDBLK
5
21
100
AcDbEntity
100
AcDbBlockEnd
0
BLOCK
5
1C
100
AcDbEntity
100
AcDbBlockBegin
2
*PAPER_SPACE
0
ENDBLK
5
1D
100
AcDbEntity
100
AcDbBlockEnd
0
ENDSEC
0
SECTION
2
ENTITIES
0
LWPOLYLINE
5
100
100
AcDbEntity
8
0
100
AcDbPolyline
90
4
70
1
43
0.0
10
250
20
0
10
0
20
0
10
0
20
250
10
250
20
250
0
LINE
5
101
100
AcDbEntity
8
0
100
AcDbLine
10
51.75
20
98.25
30
0
11
48.25
21
98.25
31
0
0
LINE
5
102
100
AcDbEntity
8
0
100
AcDbLine
10
48.25
20
98.25
30
0
11
48.25
21
101.75
31
0
0
LINE
5
103
100
AcDbEntity
8
0
100
AcDbLine
10
48.25
20
101.75
30
0
11
51.75
21
101.75
31
0
0
LINE
5
104
100
AcDbEntity
8
0
100
AcDbLine
10
51.75
20
101.75
30
0
11
51.75
21
98.25
31
0
0
LINE
5
105
100
AcDbEntity
8
0
100
AcDbLine
10
51.75
20
98.25
30
0
11
48.25
21
101.75
31
0
0
LINE
5
106
100
AcDbEntity
8
0
100
AcDbLine
10
48.25
20
98.25
30
0
11
51.75
21
101.75
31
0
0
LINE
5
107
100
AcDbEntity
8
0
100
AcDbLine
10
98.25
20
101.75
30
0
11
101.75
21
101.75
31
0
0
LINE
5
108
100
AcDbEntity
8
0
100
AcDbLine
10
98.25
20
98.25
30
0
11
98.25
21
101.75
31
0
0
LINE
5
109
100
AcDbEntity
8
0
100
AcDbLine
10
98.25
20
98.25
30
0
11
101.75
21
101.75
31
0
0
LINE
5
110
100
AcDbEntity
8
0
100
AcDbLine
10
101.75
20
98.25
30
0
11
98.25
21
101.75
31
0
0
LINE
5
111
100
AcDbEntity
8
0
100
AcDbLine
10
101.75
20
101.75
30
0
11
101.75
21
98.25
31
0
0
LINE
5
112
100
AcDbEntity
8
0
100
AcDbLine
10
101.75
20
98.25
30
0
11
98.25
21
98.25
31
0
0
LINE
5
113
100
AcDbEntity
8
0
100
AcDbLine
10
148.25
20
101.75
30
0
11
151.75
21
101.75
31
0
0
LINE
5
114
100
AcDbEntity
8
0
100
AcDbLine
10
148.25
20
98.25
30
0
11
148.25
21
101.75
31
0
0
LINE
5
115
100
AcDbEntity
8
0
100
AcDbLine
10
148.25
20
98.25
30
0
11
151.75
21
101.75
31
0
0
LINE
5
116
100
AcDbEntity
8
0
100
AcDbLine
10
151.75
20
98.25
30
0
11
148.25
21
101.75
31
0
0
LINE
5
117
100
AcDbEntity
8
0
100
AcDbLine
10
151.75
20
101.75
30
0
11
151.75
21
98.25
31
0
0
LINE
5
118
100
AcDbEntity
8
0
100
AcDbLine
10
151.75
20
98.25
30
0
11
148.25
21
98.25
31
0
0
LINE
5
119
100
AcDbEntity
8
0
100
AcDbLine
10
198.25
20
101.75
30
0
11
201.75
21
101.75
31
0
0
LINE
5
120
100
AcDbEntity
8
0
100
AcDbLine
10
198.25
20
98.25
30
0
11
198.25
21
101.75
31
0
0
LINE
5
121
100
AcDbEntity
8
0
100
AcDbLine
10
198.25
20
98.25
30
0
11
201.75
21
101.75
31
0
0
LINE
5
122
100
AcDbEntity
8
0
100
AcDbLine
10
201.75
20
98.25
30
0
11
198.25
21
101.75
31
0
0
LINE
5
123
100
AcDbEntity
8
0
100
AcDbLine
10
201.75
20
101.75
30
0
11
201.75
21
98.25
31
0
0
LINE
5
124
100
AcDbEntity
8
0
100
AcDbLine
10
201.75
20
98.25
30
0
11
198.25
21
98.25
31
0
0
LINE
5
125
100
AcDbEntity
8
0
100
AcDbLine
10
48.25
20
151.75
30
0
11
51.75
21
151.75
31
0
0
LINE
5
126
100
AcDbEntity
8
0
100
AcDbLine
10
48.25
20
148.25
30
0
11
48.25
21
151.75
31
0
0
LINE
5
127
100
AcDbEntity
8
0
100
AcDbLine
10
48.25
20
148.25
30
0
11
51.75
21
151.75
31
0
0
LINE
5
128
100
AcDbEntity
8
0
100
AcDbLine
10
51.75
20
148.25
30
0
11
48.25
21
151.75
31
0
0
LINE
5
129
100
AcDbEntity
8
0
100
AcDbLine
10
51.75
20
151.75
30
0
11
51.75
21
148.25
31
0
0
LINE
5
130
100
AcDbEntity
8
0
100
AcDbLine
10
51.75
20
148.25
30
0
11
48.25
21
148.25
31
0
0
LINE
5
131
100
AcDbEntity
8
0
100
AcDbLine
10
98.25
20
151.75
30
0
11
101.75
21
151.75
31
0
0
LINE
5
132
100
AcDbEntity
8
0
100
AcDbLine
10
98.25
20
148.25
30
0
11
98.25
21
151.75
31
0
0
LINE
5
133
100
AcDbEntity
8
0
100
AcDbLine
10
98.25
20
148.25
30
0
11
101.75
21
151.75
31
0
0
LINE
5
134
100
AcDbEntity
8
0
100
AcDbLine
10
101.75
20
148.25
30
0
11
98.25
21
151.75
31
0
0
LINE
5
135
100
AcDbEntity
8
0
100
AcDbLine
10
101.75
20
151.75
30
0
11
101.75
21
148.25
31
0
0
LINE
5
136
100
AcDbEntity
8
0
100
AcDbLine
10
101.75
20
148.25
30
0
11
98.25
21
148.25
31
0
0
LINE
5
137
100
AcDbEntity
8
0
100
AcDbLine
10
148.25
20
151.75
30
0
11
151.75
21
151.75
31
0
0
LINE
5
138
100
AcDbEntity
8
0
100
AcDbLine
10
148.25
20
148.25
30
0
11
148.25
21
151.75
31
0
0
LINE
5
139
100
AcDbEntity
8
0
100
AcDbLine
10
148.25
20
148.25
30
0
11
151.75
21
151.75
31
0
0
LINE
5
140
100
AcDbEntity
8
0
100
AcDbLine
10
151.75
20
148.25
30
0
11
148.25
21
151.75
31
0
0
LINE
5
141
100
AcDbEntity
8
0
100
AcDbLine
10
151.75
20
151.75
30
0
11
151.75
21
148.25
31
0
0
LINE
5
142
100
AcDbEntity
8
0
100
AcDbLine
10
151.75
20
148.25
30
0
11
148.25
21
148.25
31
0
0
LINE
5
143
100
AcDbEntity
8
0
100
AcDbLine
10
198.25
20
151.75
30
0
11
201.75
21
151.75
31
0
0
LINE
5
144
100
AcDbEntity
8
0
100
AcDbLine
10
198.25
20
148.25
30
0
11
198.25
21
151.75
31
0
0
LINE
5
145
100
AcDbEntity
8
0
100
AcDbLine
10
198.25
20
148.25
30
0
11
201.75
21
151.75
31
0
0
LINE
5
146
100
AcDbEntity
8
0
100
AcDbLine
10
201.75
20
148.25
30
0
11
198.25
21
151.75
31
0
0
LINE
5
147
100
AcDbEntity
8
0
100
AcDbLine
10
201.75
20
151.75
30
0
11
201.75
21
148.25
31
0
0
LINE
5
148
100
AcDbEntity
8
0
100
AcDbLine
10
201.75
20
148.25
30
0
11
198.25
21
148.25
31
0
0
LINE
5
149
100
AcDbEntity
8
0
100
AcDbLine
10
48.25
20
201.75
30
0
11
51.75
21
201.75
31
0
0
LINE
5
150
100
AcDbEntity
8
0
100
AcDbLine
10
48.25
20
198.25
30
0
11
48.25
21
201.75
31
0
0
LINE
5
151
100
AcDbEntity
8
0
100
AcDbLine
10
48.25
20
198.25
30
0
11
51.75
21
201.75
31
0
0
LINE
5
152
100
AcDbEntity
8
0
100
AcDbLine
10
51.75
20
198.25
30
0
11
48.25
21
201.75
31
0
0
LINE
5
153
100
AcDbEntity
8
0
100
AcDbLine
10
51.75
20
201.75
30
0
11
51.75
21
198.25
31
0
0
LINE
5
154
100
AcDbEntity
8
0
100
AcDbLine
10
51.75
20
198.25
30
0
11
48.25
21
198.25
31
0
0
LINE
5
155
100
AcDbEntity
8
0
100
AcDbLine
10
98.25
20
201.75
30
0
11
101.75
21
201.75
31
0
0
LINE
5
156
100
AcDbEntity
8
0
100
AcDbLine
10
98.25
20
198.25
30
0
11
98.25
21
201.75
31
0
0
LINE
5
157
100
AcDbEntity
8
0
100
AcDbLine
10
98.25
20
198.25
30
0
11
101.75
21
201.75
31
0
0
LINE
5
158
100
AcDbEntity
8
0
100
AcDbLine
10
101.75
20
198.25
30
0
11
98.25
21
201.75
31
0
0
LINE
5
159
100
AcDbEntity
8
0
100
AcDbLine
10
101.75
20
201.75
30
0
11
101.75
21
198.25
31
0
0
LINE
5
160
100
AcDbEntity
8
0
100
AcDbLine
10
101.75
20
198.25
30
0
11
98.25
21
198.25
31
0
0
LINE
5
161
100
AcDbEntity
8
0
100
AcDbLine
10
148.25
20
201.75
30
0
11
151.75
21
201.75
31
0
0
LINE
5
162
100
AcDbEntity
8
0
100
AcDbLine
10
148.25
20
198.25
30
0
11
148.25
21
201.75
31
0
0
LINE
5
163
100
AcDbEntity
8
0
100
AcDbLine
10
148.25
20
198.25
30
0
11
151.75
21
201.75
31
0
0
LINE
5
164
100
AcDbEntity
8
0
100
AcDbLine
10
151.75
20
198.25
30
0
11
148.25
21
201.75
31
0
0
LINE
5
165
100
AcDbEntity
8
0
100
AcDbLine
10
151.75
20
201.75
30
0
11
151.75
21
198.25
31
0
0
LINE
5
166
100
AcDbEntity
8
0
100
AcDbLine
10
151.75
20
198.25
30
0
11
148.25
21
198.25
31
0
0
LINE
5
167
100
AcDbEntity
8
0
100
AcDbLine
10
198.25
20
201.75
30
0
11
201.75
21
201.75
31
0
0
LINE
5
168
100
AcDbEntity
8
0
100
AcDbLine
10
198.25
20
198.25
30
0
11
198.25
21
201.75
31
0
0
LINE
5
169
100
AcDbEntity
8
0
100
AcDbLine
10
198.25
20
198.25
30
0
11
201.75
21
201.75
31
0
0
LINE
5
170
100
AcDbEntity
8
0
100
AcDbLine
10
201.75
20
198.25
30
0
11
198.25
21
201.75
31
0
0
LINE
5
171
100
AcDbEntity
8
0
100
AcDbLine
10
201.75
20
201.75
30
0
11
201.75
21
198.25
31
0
0
LINE
5
172
100
AcDbEntity
8
0
100
AcDbLine
10
201.75
20
198.25
30
0
11
198.25
21
198.25
31
0
0
LWPOLYLINE
5
173
100
AcDbEntity
8
0
100
AcDbPolyline
90
4
70
1
43
0.0
10
156.05930636138234
20
7.0557004256987526
10
94.076884486382369
20
7.0557004256987685
10
94.076884486382369
20
17.055700425698724
10
156.05930636138234
20
17.05570042569871
0
LWPOLYLINE
5
174
100
AcDbEntity
8
0
100
AcDbPolyline
90
4
70
1
43
0.0
10
146.58111367636209
20
36.370155575000574
10
102.76275430136209
20
36.370155575000574
10
102.76275430136209
20
46.370155575000553
10
146.58111367636209
20
46.370155575000553
0
LWPOLYLINE
5
175
100
AcDbEntity
8
0
100
AcDbPolyline
90
4
70
1
43
0.0
10
141.82091487642492
20
21.922616448950691
10
109.01818050142492
20
21.922616448950691
10
109.01818050142492
20
31.922616448950638
10
141.82091487642492
20
31.922616448950638
0
ENDSEC
0
SECTION
2
OBJECTS
0
DICTIONARY
5
C
100
AcDbDictionary
3
ACAD_GROUP
350
D
3
ACAD_MLINESTYLE
350
17
0
DICTIONARY
5
D
100
AcDbDictionary
0
DICTIONARY
5
1A
330
C
100
AcDbDictionary
0
DICTIONARY
5
17
100
AcDbDictionary
0
ENDSEC
0
EOF
