0
SECTION
2
HEADER
9
$INSUNITS
70
4
9
$ACADVER
1
AC1014
9
$HANDSEED
5
FFFF
0
ENDSEC
0
SECTION
2
TABLES
0
TABLE
2
VPORT
5
8
100
AcDbSymbolTable
0
ENDTAB
0
TABLE
2
LTYPE
5
5
100
AcDbSymbolTable
0
LTYPE
5
14
100
AcDbSymbolTableRecord
100
AcDbLinetypeTableRecord
2
BYBLOCK
70
0
0
LTYPE
5
15
100
AcDbSymbolTableRecord
100
AcDbLinetypeTableRecord
2
BYLAYER
70
0
0
ENDTAB
0
TABLE
2
LAYER
5
2
100
AcDbSymbolTable
70
2
0
LAYER
5
50
100
AcDbSymbolTableRecord
100
AcDbLayerTableRecord
2
0
70
0
6
CONTINUOUS
0
ENDTAB
0
TABLE
2
STYLE
5
3
100
AcDbSymbolTable
70
1
0
STYLE
5
11
100
AcDbSymbolTableRecord
100
AcDbTextStyleTableRecord
2
STANDARD
70
0
0
ENDTAB
0
TABLE
2
VIEW
5
6
100
AcDbSymbolTable
70
0
0
ENDTAB
0
TABLE
2
UCS
5
7
100
AcDbSymbolTable
70
0
0
ENDTAB
0
TABLE
2
APPID
5
9
100
AcDbSymbolTable
70
2
0
APPID
5
12
100
AcDbSymbolTableRecord
100
AcDbRegAppTableRecord
2
ACAD
70
0
0
ENDTAB
0
TABLE
2
DIMSTYLE
5
A
100
AcDbSymbolTable
70
1
0
ENDTAB
0
TABLE
2
BLOCK_RECORD
5
1
100
AcDbSymbolTable
70
1
0
BLOCK_RECORD
5
1F
100
AcDbSymbolTableRecord
100
AcDbBlockTableRecord
2
*MODEL_SPACE
0
BLOCK_RECORD
5
1B
100
AcDbSymbolTableRecord
100
AcDbBlockTableRecord
2
*PAPER_SPACE
0
ENDTAB
0
ENDSEC
0
SECTION
2
BLOCKS
0
BLOCK
5
20
100
AcDbEntity
100
AcDbBlockBegin
2
*MODEL_SPACE
0
ENDBLK
5
21
100
AcDbEntity
100
AcDbBlockEnd
0
BLOCK
5
1C
100
AcDbEntity
100
AcDbBlockBegin
2
*PAPER_SPACE
0
ENDBLK
5
1D
100
AcDbEntity
100
AcDbBlockEnd
0
ENDSEC
0
SECTION
2
ENTITIES
0
LINE
5
100
100
AcDbEntity
8
0
100
AcDbLine
10
2.0000000298023224
20
19.927619326509049
30
0
11
2.0000000298023224
21
16.000000238418579
31
0
0
LINE
5
101
100
AcDbEntity
8
0
100
AcDbLine
10
2.0000000298023224
20
16.000000238418579
30
0
11
-1.4999999701976781
21
16.000000238418579
31
0
0
LINE
5
102
100
AcDbEntity
8
0
100
AcDbLine
10
-1.4999999701976781
20
16.000000238418579
30
0
11
-1.4999999701976781
21
19.943670976285585
31
0
0
LINE
5
103
100
AcDbEntity
8
0
100
AcDbLine
10
-11.433668550085702
20
11.292529877169633
30
0
11
-13.968611237069986
21
14.313556931403573
31
0
0
LINE
5
104
100
AcDbEntity
8
0
100
AcDbLine
10
-8.7525129991692801
20
13.542286511072518
30
0
11
-11.433668550085702
21
11.292529877169633
31
0
0
LINE
5
105
100
AcDbEntity
8
0
100
AcDbLine
10
-11.277137884562178
20
16.551017288192252
30
0
11
-8.7525129991692801
21
13.542286511072518
31
0
0
LINE
5
106
100
AcDbEntity
8
0
100
AcDbLine
10
-16.017396544317069
20
1.3011592839030861
30
0
11
-19.901154062295873
21
1.9859705208520906
31
0
0
LINE
5
107
100
AcDbEntity
8
0
100
AcDbLine
10
-15.409627922482814
20
4.7479864194458141
30
0
11
-16.017396544317069
21
1.3011592839030861
31
0
0
LINE
5
108
100
AcDbEntity
8
0
100
AcDbLine
10
-19.277577651313045
20
5.4300103166625764
30
0
11
-15.409627922482814
21
4.7479864194458141
31
0
0
LINE
5
109
100
AcDbEntity
8
0
100
AcDbLine
10
-13.106406681928728
20
-9.299038199076378
30
0
11
-16.521725725082877
21
-11.270873568009879
31
0
0
LINE
5
110
100
AcDbEntity
8
0
100
AcDbLine
10
-14.856406681928728
20
-6.2679492858308405
30
0
11
-13.106406681928728
21
-9.299038199076378
31
0
0
LINE
5
111
100
AcDbEntity
8
0
100
AcDbLine
10
-18.257824588603746
20
-8.2317588298760747
30
0
11
-14.856406681928728
21
-6.2679492858308405
31
0
0
LINE
5
112
100
AcDbEntity
8
0
100
AcDbLine
10
-4.0627834715808175
20
-15.548112361410219
30
0
11
-5.4115983025753369
21
-19.253950652593161
31
0
0
LINE
5
113
100
AcDbEntity
8
0
100
AcDbLine
10
-7.3517076443314968
20
-14.351041859770376
30
0
11
-4.0627834715808175
21
-15.548112361410219
31
0
0
LINE
5
114
100
AcDbEntity
8
0
100
AcDbLine
10
-8.6950324877688328
20
-18.041796534106872
30
0
11
-7.3517076443314968
21
-14.351041859770376
31
0
0
LINE
5
115
100
AcDbEntity
8
0
100
AcDbLine
10
6.881861277928496
20
-14.522051951819201
30
0
11
8.2306761089230136
21
-18.227890243002143
31
0
0
LINE
5
116
100
AcDbEntity
8
0
100
AcDbLine
10
3.5929371051778167
20
-15.719122453459043
30
0
11
6.881861277928496
21
-14.522051951819201
31
0
0
LINE
5
117
100
AcDbEntity
8
0
100
AcDbLine
10
4.9362619486151518
20
-19.409877127795536
30
0
11
3.5929371051778167
21
-15.719122453459043
31
0
0
LINE
5
118
100
AcDbEntity
8
0
100
AcDbLine
10
14.606406652126401
20
-6.7009620393422109
30
0
11
18.021725695280548
21
-8.6727974082757147
31
0
0
LINE
5
119
100
AcDbEntity
8
0
100
AcDbLine
10
12.856406652126397
20
-9.7320509525877448
30
0
11
14.606406652126401
21
-6.7009620393422109
31
0
0
LINE
5
120
100
AcDbEntity
8
0
100
AcDbLine
10
16.257824558801417
20
-11.695860496632983
30
0
11
12.856406652126397
21
-9.7320509525877448
31
0
0
LINE
5
121
100
AcDbEntity
8
0
100
AcDbLine
10
15.496452021666521
20
4.2555824842405858
30
0
11
19.380209539645321
21
4.9403937211895874
31
0
0
LINE
5
122
100
AcDbEntity
8
0
100
AcDbLine
10
16.104220643500774
20
0.80875534869785692
30
0
11
15.496452021666521
21
4.2555824842405858
31
0
0
LINE
5
123
100
AcDbEntity
8
0
100
AcDbLine
10
19.972170372331007
20
1.4907792459146165
30
0
11
16.104220643500774
21
0.80875534869785692
31
0
0
ARC
5
124
100
AcDbEntity
8
0
100
AcDbCircle
10
0
20
0
30
0
40
20.000000298023224
100
AcDbArc
50
94.301222154837987
51
124.26082952273322
0
ARC
5
125
100
AcDbEntity
8
0
100
AcDbCircle
10
0
20
0
30
0
40
20.000000298023224
100
AcDbArc
50
134.301222154838
51
164.26082952273322
0
ARC
5
126
100
AcDbEntity
8
0
100
AcDbCircle
10
0
20
0
30
0
40
20.000000298023224
100
AcDbArc
50
174.30122215483803
51
204.26082952273319
0
ARC
5
127
100
AcDbEntity
8
0
100
AcDbCircle
10
0
20
0
30
0
40
20.000000298023224
100
AcDbArc
50
214.30122215483797
51
244.26082952273319
0
ARC
5
128
100
AcDbEntity
8
0
100
AcDbCircle
10
0
20
0
30
0
40
20.00000029802322
100
AcDbArc
50
254.30122215483797
51
284.26082952273322
0
ARC
5
129
100
AcDbEntity
8
0
100
AcDbCircle
10
0
20
0
30
0
40
20.00000029802322
100
AcDbArc
50
294.301222154838
51
324.26082952273316
0
ARC
5
130
100
AcDbEntity
8
0
100
AcDbCircle
10
0
20
0
30
0
40
20.000000298023224
100
AcDbArc
50
54.301222154837973
51
84.260829522733218
0
LWPOLYLINE
5
131
100
AcDbEntity
8
0
100
AcDbPolyline
90
4
70
1
43
0.0
10
-1.6500000000000001
20
1.8500000000000003
10
1.8500000000000003
20
1.8500000000000003
10
1.8500000000000003
20
-1.6500000000000001
10
-1.6500000000000001
20
-1.6500000000000001
0
LINE
5
132
100
AcDbEntity
8
0
100
AcDbLine
10
9.135535266388576
20
13.220892667916122
30
0
11
11.670477953372862
21
16.241919722150058
31
0
0
LINE
5
133
100
AcDbEntity
8
0
100
AcDbLine
10
11.816690817305
20
10.971136034013234
30
0
11
9.135535266388576
21
13.220892667916122
31
0
0
LINE
5
134
100
AcDbEntity
8
0
100
AcDbLine
10
14.341315702697901
20
13.979866811132965
30
0
11
11.816690817305
21
10.971136034013234
31
0
0
ARC
5
135
100
AcDbEntity
8
0
100
AcDbCircle
10
0
20
0
30
0
40
20.000000298023224
100
AcDbArc
50
-25.698777845162084
51
4.2608295227331991
0
ARC
5
136
100
AcDbEntity
8
0
100
AcDbCircle
10
0
20
0
30
0
40
20.000000298023224
100
AcDbArc
50
14.30122215483795
51
44.260829522733196
0
ENDSEC
0
SECTION
2
OBJECTS
0
DICTIONARY
5
C
100
AcDbDictionary
3
ACAD_GROUP
350
D
3
ACAD_MLINESTYLE
350
17
0
DICTIONARY
5
D
100
AcDbDictionary
0
DICTIONARY
5
1A
330
C
100
AcDbDictionary
0
DICTIONARY
5
17
100
AcDbDictionary
0
ENDSEC
0
EOF
