0
SECTION
2
HEADER
9
$INSUNITS
70
4
9
$ACADVER
1
AC1014
9
$HANDSEED
5
FFFF
0
ENDSEC
0
SECTION
2
TABLES
0
TABLE
2
VPORT
5
8
100
AcDbSymbolTable
0
ENDTAB
0
TABLE
2
LTYPE
5
5
100
AcDbSymbolTable
0
LTYPE
5
14
100
AcDbSymbolTableRecord
100
AcDbLinetypeTableRecord
2
BYBLOCK
70
0
0
LTYPE
5
15
100
AcDbSymbolTableRecord
100
AcDbLinetypeTableRecord
2
BYLAYER
70
0
0
ENDTAB
0
TABLE
2
LAYER
5
2
100
AcDbSymbolTable
70
2
0
LAYER
5
50
100
AcDbSymbolTableRecord
100
AcDbLayerTableRecord
2
0
70
0
6
CONTINUOUS
0
ENDTAB
0
TABLE
2
STYLE
5
3
100
AcDbSymbolTable
70
1
0
STYLE
5
11
100
AcDbSymbolTableRecord
100
AcDbTextStyleTableRecord
2
STANDARD
70
0
0
ENDTAB
0
TABLE
2
VIEW
5
6
100
AcDbSymbolTable
70
0
0
ENDTAB
0
TABLE
2
UCS
5
7
100
AcDbSymbolTable
70
0
0
ENDTAB
0
TABLE
2
APPID
5
9
100
AcDbSymbolTable
70
2
0
APPID
5
12
100
AcDbSymbolTableRecord
100
AcDbRegAppTableRecord
2
ACAD
70
0
0
ENDTAB
0
TABLE
2
DIMSTYLE
5
A
100
AcDbSymbolTable
70
1
0
ENDTAB
0
TABLE
2
BLOCK_RECORD
5
1
100
AcDbSymbolTable
70
1
0
BLOCK_RECORD
5
1F
100
AcDbSymbolTableRecord
100
AcDbBlockTableRecord
2
*MODEL_SPACE
0
BLOCK_RECORD
5
1B
100
AcDbSymbolTableRecord
100
AcDbBlockTableRecord
2
*PAPER_SPACE
0
ENDTAB
0
ENDSEC
0
SECTION
2
BLOCKS
0
BLOCK
5
20
100
AcDbEntity
100
AcDbBlockBegin
2
*MODEL_SPACE
0
ENDBLK
5
21
100
AcDbEntity
100
AcDbBlockEnd
0
BLOCK
5
1C
100
AcDbEntity
100
AcDbBlockBegin
2
*PAPER_SPACE
0
ENDBLK
5
1D
100
AcDbEntity
100
AcDbBlockEnd
0
ENDSEC
0
SECTION
2
ENTITIES
0
LWPOLYLINE
5
100
100
AcDbEntity
8
0
100
AcDbPolyline
90
12
70
1
43
0.0
10
191.44494427900003
20
374.9903206140001
10
191.44494427900003
20
346.99032061400004
10
196.44494427900003
20
346.99032061400004
10
196.44494427900003
20
353.9903206140001
10
200.14494427900004
20
353.9903206140001
10
200.14494427900004
20
346.99032061400004
10
205.14494427900004
20
346.99032061400004
10
205.14494427900004
20
374.9903206140001
10
200.14494427900004
20
374.9903206140001
10
200.14494427900004
20
367.99032061400004
10
196.44494427900003
20
367.99032061400004
10
196.44494427900003
20
374.9903206140001
0
LWPOLYLINE
5
101
100
AcDbEntity
8
0
100
AcDbPolyline
90
21
70
1
43
0.0
10
203.15857126200001
20
238.52411543300002
10
191.65857126200001
20
258.44269972000001
10
180.15857126200001
20
238.52411543300002
42
0.41421356237300777
10
181.07921877999999
20
235.08821212000001
10
184.97633309700004
20
232.83821212000004
10
183.12633309700001
20
229.63391812600003
10
179.22921878
20
231.88391812600005
42
0.41421356237298934
10
175.79331546800003
20
230.96327060800002
10
164.293315468
20
211.04468632099997
10
187.293315468
20
211.04468632100003
42
0.41421356237300405
10
189.80857126200004
20
213.559942116
10
189.80857126200004
20
218.05994211599997
10
193.508571262
20
218.05994211599997
10
193.508571262
20
213.559942116
42
0.4142135623729874
10
196.02382705700001
20
211.04468632099997
10
219.02382705700003
20
211.04468632099997
10
207.52382705700001
20
230.96327060800002
42
0.41421356237301343
10
204.08792374400005
20
231.88391812600003
10
200.190809427
20
229.63391812600003
10
198.34080942700001
20
232.83821212000004
10
202.23792374400006
20
235.08821212000001
42
0.41421356237299856
0
ENDSEC
0
SECTION
2
OBJECTS
0
DICTIONARY
5
C
100
AcDbDictionary
3
ACAD_GROUP
350
D
3
ACAD_MLINESTYLE
350
17
0
DICTIONARY
5
D
100
AcDbDictionary
0
DICTIONARY
5
1A
330
C
100
AcDbDictionary
0
DICTIONARY
5
17
100
AcDbDictionary
0
ENDSEC
0
EOF
